<svg width="1209" height="695" xmlns="http://www.w3.org/2000/svg"
     overflow="hidden">
    <defs>
        <clipPath id="clip0">
            <rect x="11" y="0" width="1209" height="695"/>
        </clipPath>
        <clipPath id="clip1">
            <rect x="1018" y="30" width="117" height="117"/>
        </clipPath>
        <clipPath id="clip2">
            <rect x="1018" y="30" width="117" height="117"/>
        </clipPath>
        <clipPath id="clip3">
            <rect x="1018" y="30" width="117" height="117"/>
        </clipPath>
        <clipPath id="clip4">
            <rect x="38" y="74" width="170" height="170"/>
        </clipPath>
        <clipPath id="clip5">
            <rect x="38" y="74" width="170" height="170"/>
        </clipPath>
        <clipPath id="clip6">
            <rect x="38" y="74" width="170" height="170"/>
        </clipPath>
        <clipPath id="clip7">
            <rect x="448" y="213" width="96" height="96"/>
        </clipPath>
        <clipPath id="clip8">
            <rect x="448" y="213" width="96" height="96"/>
        </clipPath>
        <clipPath id="clip9">
            <rect x="448" y="213" width="96" height="96"/>
        </clipPath>
        <clipPath id="clip10">
            <rect x="38" y="421" width="170" height="170"/>
        </clipPath>
        <clipPath id="clip11">
            <rect x="38" y="421" width="170" height="170"/>
        </clipPath>
        <clipPath id="clip12">
            <rect x="38" y="421" width="170" height="170"/>
        </clipPath>
        <clipPath id="clip13">
            <rect x="452" y="51" width="96" height="96"/>
        </clipPath>
        <clipPath id="clip14">
            <rect x="452" y="51" width="96" height="96"/>
        </clipPath>
        <clipPath id="clip15">
            <rect x="452" y="51" width="96" height="96"/>
        </clipPath>
        <clipPath id="clip16">
            <rect x="1018" y="369" width="117" height="118"/>
        </clipPath>
        <clipPath id="clip17">
            <rect x="1018" y="369" width="117" height="118"/>
        </clipPath>
        <clipPath id="clip18">
            <rect x="1018" y="369" width="117" height="118"/>
        </clipPath>
        <clipPath id="clip19">
            <rect x="1023" y="545" width="117" height="118"/>
        </clipPath>
        <clipPath id="clip20">
            <rect x="1023" y="545" width="117" height="118"/>
        </clipPath>
        <clipPath id="clip21">
            <rect x="1023" y="545" width="117" height="118"/>
        </clipPath>
    </defs>
    <g clip-path="url(#clip0)" transform="translate(-11 0)">
        <path d="M13.5001 6.50005 1163.33 6.50005 1219.5 62.668 1219.5 343.5 1219.5 343.5 69.6679 343.5 13.5001 287.332 13.5001 6.50005Z"
              stroke="#2F528F" stroke-width="1.33333" stroke-miterlimit="8" fill="#B4C7E7"
              fill-rule="evenodd"/>
        <text fill="#FFFFFF" font-family="Calibri,Calibri_MSFontService,sans-serif"
              font-weight="700" font-size="24" transform="translate(50.3308 61)">D
            <tspan font-size="24" x="14.6067" y="0">AQ</tspan>
        </text>
        <path d="M50.3308 63.7483 95.3308 63.7483 95.3308 65.7484 50.3308 65.7484Z" fill="#FFFFFF"
              fill-rule="evenodd"/>
        <path d="M696.5 46.0004C696.5 32.4692 707.469 21.5001 721 21.5001L1111 21.5001C1124.53 21.5001 1135.5 32.4692 1135.5 46.0004L1135.5 144C1135.5 157.531 1124.53 168.5 1111 168.5L721 168.5C707.469 168.5 696.5 157.531 696.5 144Z"
              stroke="#2F528F" stroke-width="1.33333" stroke-miterlimit="8" fill="#4472C4"
              fill-rule="evenodd"/>
        <text fill="#FFFFFF" font-family="Calibri,Calibri_MSFontService,sans-serif"
              font-weight="400" font-size="24" transform="translate(712.995 88)">DAQ<tspan
                font-size="24" x="0" y="29">l</tspan>ocal storage
        </text>
        <g clip-path="url(#clip1)">
            <g clip-path="url(#clip2)">
                <g clip-path="url(#clip3)">
                    <path d="M1110.62 51.9375C1110.62 57.3223 1095.35 61.6875 1076.5 61.6875 1057.65 61.6875 1042.38 57.3223 1042.38 51.9375 1042.38 46.5527 1057.65 42.1875 1076.5 42.1875 1095.35 42.1875 1110.62 46.5527 1110.62 51.9375Z"/>
                    <path d="M1100.88 76.3125C1099.41 76.3125 1098.44 75.3375 1098.44 73.875 1098.44 72.4125 1099.41 71.4375 1100.88 71.4375 1102.34 71.4375 1103.31 72.4125 1103.31 73.875 1103.31 75.3375 1102.34 76.3125 1100.88 76.3125ZM1076.5 66.5625C1057.73 66.5625 1042.38 62.175 1042.38 56.8125L1042.38 76.3125C1042.38 81.675 1057.73 86.0625 1076.5 86.0625 1095.27 86.0625 1110.62 81.675 1110.62 76.3125L1110.62 56.8125C1110.62 62.175 1095.27 66.5625 1076.5 66.5625Z"/>
                    <path d="M1100.88 100.688C1099.41 100.688 1098.44 99.7125 1098.44 98.25 1098.44 96.7875 1099.41 95.8125 1100.88 95.8125 1102.34 95.8125 1103.31 96.7875 1103.31 98.25 1103.31 99.7125 1102.34 100.688 1100.88 100.688ZM1076.5 90.9375C1057.73 90.9375 1042.38 86.55 1042.38 81.1875L1042.38 100.688C1042.38 106.05 1057.73 110.438 1076.5 110.438 1095.27 110.438 1110.62 106.05 1110.62 100.688L1110.62 81.1875C1110.62 86.55 1095.27 90.9375 1076.5 90.9375Z"/>
                    <path d="M1100.88 125.062C1099.41 125.062 1098.44 124.087 1098.44 122.625 1098.44 121.163 1099.41 120.188 1100.88 120.188 1102.34 120.188 1103.31 121.163 1103.31 122.625 1103.31 124.087 1102.34 125.062 1100.88 125.062ZM1076.5 115.312C1057.73 115.312 1042.38 110.925 1042.38 105.562L1042.38 125.062C1042.38 130.425 1057.73 134.812 1076.5 134.812 1095.27 134.812 1110.62 130.425 1110.62 125.062L1110.62 105.562C1110.62 110.925 1095.27 115.312 1076.5 115.312Z"/>
                </g>
            </g>
        </g>
        <g clip-path="url(#clip4)">
            <g clip-path="url(#clip5)">
                <g clip-path="url(#clip6)">
                    <path d="M183.208 187.333 62.7917 187.333 62.7917 109.417 183.208 109.417 183.208 187.333ZM186.75 98.7917 59.25 98.7917C55.3542 98.7917 52.1667 101.979 52.1667 105.875L52.1667 190.875C52.1667 194.771 55.3542 197.958 59.25 197.958L108.833 197.958 108.833 208.583 91.125 208.583 91.125 219.208 154.875 219.208 154.875 208.583 137.167 208.583 137.167 197.958 186.75 197.958C190.646 197.958 193.833 194.771 193.833 190.875L193.833 105.875C193.833 101.979 190.646 98.7917 186.75 98.7917Z"/>
                </g>
            </g>
        </g>
        <path d="M13.5001 357.5 1163.33 357.5 1219.5 413.668 1219.5 694.5 1219.5 694.5 69.6679 694.5 13.5001 638.332 13.5001 357.5Z"
              stroke="#2F528F" stroke-width="1.33333" stroke-miterlimit="8" fill="#F8CBAD"
              fill-rule="evenodd"/>
        <text fill="#FFFFFF" font-family="Calibri,Calibri_MSFontService,sans-serif"
              font-weight="700" font-size="24" transform="translate(50.3309 412)">Stoomboot
        </text>
        <path d="M50.3309 414.54 161.331 414.54 161.331 416.54 50.3309 416.54Z" fill="#FFFFFF"
              fill-rule="evenodd"/>
        <path d="M226.5 261C226.5 218.198 298.582 183.5 387.5 183.5 476.418 183.5 548.5 218.198 548.5 261 548.5 303.802 476.418 338.5 387.5 338.5 298.582 338.5 226.5 303.802 226.5 261Z"
              stroke="#2F528F" stroke-width="1.33333" stroke-miterlimit="8" fill="#4472C4"
              fill-rule="evenodd"/>
        <text fill="#FFFFFF" font-family="Calibri,Calibri_MSFontService,sans-serif"
              font-weight="400" font-size="24" transform="translate(351.933 254)">Mongo
            <tspan font-size="24" x="-6.73999" y="29">database</tspan>
        </text>
        <g clip-path="url(#clip7)">
            <g clip-path="url(#clip8)">
                <g clip-path="url(#clip9)">
                    <path d="M507.3 250.3C503.1 250.3 499.8 246.9 499.8 242.8 499.8 238.7 503.2 235.3 507.3 235.3 511.5 235.3 514.8 238.7 514.8 242.8 514.8 246.9 511.4 250.3 507.3 250.3ZM524.2 238.1C523.8 236.7 523.3 235.4 522.6 234.2L524.2 229.5 520.6 225.9 515.9 227.5C514.7 226.8 513.4 226.3 512 225.9L509.8 221.5 504.8 221.5 502.6 225.9C501.2 226.3 499.9 226.8 498.7 227.5L494 225.9 490.4 229.5 492 234.2C491.3 235.4 490.8 236.7 490.4 238.1L486 240.3 486 245.3 490.4 247.5C490.8 248.9 491.3 250.2 492 251.4L490.4 256.1 493.9 259.6 498.6 258C499.8 258.7 501.1 259.2 502.5 259.6L504.7 264 509.7 264 511.9 259.6C513.3 259.2 514.6 258.7 515.8 258L520.5 259.6 524.1 256.1 522.5 251.4C523.2 250.2 523.8 248.8 524.2 247.5L528.6 245.3 528.6 240.3 524.2 238.1Z"/>
                    <path d="M484.7 286.7C480.5 286.7 477.2 283.3 477.2 279.2 477.2 275 480.6 271.7 484.7 271.7 488.9 271.7 492.2 275.1 492.2 279.2 492.2 283.3 488.9 286.7 484.7 286.7L484.7 286.7ZM500 270.6 501.6 265.9 498 262.3 493.3 263.9C492.1 263.2 490.7 262.7 489.4 262.3L487.2 257.9 482.2 257.9 480 262.3C478.6 262.7 477.3 263.2 476.1 263.9L471.4 262.3 467.9 265.8 469.4 270.5C468.7 271.7 468.2 273.1 467.8 274.4L463.4 276.6 463.4 281.6 467.8 283.8C468.2 285.2 468.7 286.5 469.4 287.7L467.9 292.4 471.4 295.9 476.1 294.4C477.3 295.1 478.6 295.6 480 296L482.2 300.4 487.2 300.4 489.4 296C490.8 295.6 492.1 295.1 493.3 294.4L498 296 501.5 292.4 500 287.8C500.7 286.6 501.2 285.3 501.6 283.9L506 281.7 506 276.7 501.6 274.5C501.2 273.1 500.7 271.8 500 270.6Z"/>
                </g>
            </g>
        </g>
        <path d="M701.5 389C701.5 375.469 712.469 364.5 726 364.5L1116 364.5C1129.53 364.5 1140.5 375.469 1140.5 389L1140.5 487C1140.5 500.531 1129.53 511.5 1116 511.5L726 511.5C712.469 511.5 701.5 500.531 701.5 487Z"
              stroke="#2F528F" stroke-width="1.33333" stroke-miterlimit="8" fill="#C55A11"
              fill-rule="evenodd"/>
        <text fill="#FFFFFF" font-family="Calibri,Calibri_MSFontService,sans-serif"
              font-weight="400" font-size="24" transform="translate(718.074 416)">Stoomboot
            <tspan font-size="24" x="0" y="29">storage</tspan>
            <tspan font-family="Courier New,Courier New_MSFontService,sans-serif" font-size="24"
                   x="0" y="57">/data/xenon/&lt;folder&gt;
            </tspan>
        </text>
        <g clip-path="url(#clip10)">
            <g clip-path="url(#clip11)">
                <g clip-path="url(#clip12)">
                    <path d="M183.208 534.333 62.7917 534.333 62.7917 456.417 183.208 456.417 183.208 534.333ZM186.75 445.792 59.25 445.792C55.3542 445.792 52.1667 448.979 52.1667 452.875L52.1667 537.875C52.1667 541.771 55.3542 544.958 59.25 544.958L108.833 544.958 108.833 555.583 91.125 555.583 91.125 566.208 154.875 566.208 154.875 555.583 137.167 555.583 137.167 544.958 186.75 544.958C190.646 544.958 193.833 541.771 193.833 537.875L193.833 452.875C193.833 448.979 190.646 445.792 186.75 445.792Z"/>
                </g>
            </g>
        </g>
        <path d="M558.5 78.7501 670 78.7501 670 65.5001 696.5 92.0001 670 118.5 670 105.25 558.5 105.25Z"
              stroke="#BC8C00" stroke-width="1.33333" stroke-miterlimit="8" fill="#FFC000"
              fill-rule="evenodd"/>
        <text fill="#FFFFFF" font-family="Calibri,Calibri_MSFontService,sans-serif"
              font-weight="400" font-size="24" transform="translate(579.519 99)">live data
        </text>
        <path d="M236.5 92.0001C236.5 49.198 308.582 14.5001 397.5 14.5001 486.418 14.5001 558.5 49.198 558.5 92.0001 558.5 134.802 486.418 169.5 397.5 169.5 308.582 169.5 236.5 134.802 236.5 92.0001Z"
              stroke="#2F528F" stroke-width="1.33333" stroke-miterlimit="8" fill="#4472C4"
              fill-rule="evenodd"/>
        <text fill="#FFFFFF" font-family="Courier New,Courier New_MSFontService,sans-serif"
              font-weight="400" font-size="24" transform="translate(361.597 98)">redax
        </text>
        <g clip-path="url(#clip13)">
            <g clip-path="url(#clip14)">
                <g clip-path="url(#clip15)">
                    <path d="M511.3 88.3C507.1 88.3 503.8 84.9 503.8 80.8 503.8 76.7 507.2 73.3 511.3 73.3 515.5 73.3 518.8 76.7 518.8 80.8 518.8 84.9 515.4 88.3 511.3 88.3ZM528.2 76.1C527.8 74.7 527.3 73.4 526.6 72.2L528.2 67.5 524.6 63.9 519.9 65.5C518.7 64.8 517.4 64.3 516 63.9L513.8 59.5 508.8 59.5 506.6 63.9C505.2 64.3 503.9 64.8 502.7 65.5L498 63.9 494.4 67.5 496 72.2C495.3 73.4 494.8 74.7 494.4 76.1L490 78.3 490 83.3 494.4 85.5C494.8 86.9 495.3 88.2 496 89.4L494.4 94.1 497.9 97.6 502.6 96C503.8 96.7 505.1 97.2 506.5 97.6L508.7 102 513.7 102 515.9 97.6C517.3 97.2 518.6 96.7 519.8 96L524.5 97.6 528.1 94.1 526.5 89.4C527.2 88.2 527.8 86.8 528.2 85.5L532.6 83.3 532.6 78.3 528.2 76.1Z"/>
                    <path d="M488.7 124.7C484.5 124.7 481.2 121.3 481.2 117.2 481.2 113 484.6 109.7 488.7 109.7 492.9 109.7 496.2 113.1 496.2 117.2 496.2 121.3 492.9 124.7 488.7 124.7L488.7 124.7ZM504 108.6 505.6 103.9 502 100.3 497.3 101.9C496.1 101.2 494.7 100.7 493.4 100.3L491.2 95.9 486.2 95.9 484 100.3C482.6 100.7 481.3 101.2 480.1 101.9L475.4 100.3 471.9 103.8 473.4 108.5C472.7 109.7 472.2 111.1 471.8 112.4L467.4 114.6 467.4 119.6 471.8 121.8C472.2 123.2 472.7 124.5 473.4 125.7L471.9 130.4 475.4 133.9 480.1 132.4C481.3 133.1 482.6 133.6 484 134L486.2 138.4 491.2 138.4 493.4 134C494.8 133.6 496.1 133.1 497.3 132.4L502 134 505.5 130.4 504 125.8C504.7 124.6 505.2 123.3 505.6 121.9L510 119.7 510 114.7 505.6 112.5C505.2 111.1 504.7 109.8 504 108.6Z"/>
                </g>
            </g>
        </g>
        <path d="M833.25 169.5 833.25 338 846.5 338 820 364.5 793.5 338 806.75 338 806.75 169.5Z"
              stroke="#BC8C00" stroke-width="1.33333" stroke-miterlimit="8" fill="#FFC000"
              fill-rule="evenodd"/>
        <text fill="#FFFFFF" font-family="Calibri,Calibri_MSFontService,sans-serif"
              font-weight="400" font-size="24"
              transform="matrix(6.12323e-17 1 -1 6.12323e-17 812.13 219)">live data
        </text>
        <path d="M512.125 386.706 512.943 383.515 515.453 380.11 518.883 377.303 522.988 375.071 527.657 373.217 532.762 371.787 538.183 370.907 543.572 370.582 543.34 370.603 545.965 370.29 545.063 370.506 547.626 369.568 546.918 369.909 549.48 368.347 548.979 368.709 551.416 366.646 551.102 366.943 553.539 364.38 553.214 364.769 555.464 361.706 555.313 361.927 557.5 358.49 557.357 358.734 559.419 354.921 559.244 355.288 562.807 346.726 562.654 347.163 565.404 337.538 565.307 337.964 567.057 327.714 567.007 328.152 567.632 317.527 567.631 317.975 567.068 307.412 567.104 307.775 565.604 297.463 565.68 297.851 563.305 288.289 563.418 288.663 560.356 280.038 561.154 281.378 558.318 278.233 564.26 272.876 567.628 276.612 571.022 286.171 573.492 296.115 575.047 306.805 575.631 317.773 574.98 328.843 573.156 339.526 570.282 349.584 566.552 358.549 564.326 362.665 561.99 366.335 559.511 369.71 556.749 372.613 553.91 375.016 550.745 376.945 547.374 378.179 544.169 378.56 538.866 378.88 539.267 378.835 534.267 379.648 534.703 379.552 530.016 380.864 530.414 380.73 526.164 382.417 526.599 382.214 523.036 384.151 523.658 383.733 520.908 385.983 521.595 385.26 519.845 387.635 520.5 386.256 519.875 388.693ZM555.259 286.674 547.625 260.95 572.785 270.277Z"
              fill="#FF0000"/>
        <path d="M701.5 415 571.5 415 571.5 428.5 544.5 401.5 571.5 374.5 571.5 388 701.5 388Z"
              stroke="#BC8C00" stroke-width="1.33333" stroke-miterlimit="8" fill="#FFC000"
              fill-rule="evenodd"/>
        <path d="M425.75 511.5 425.75 597.125 662.25 597.125 662.25 580 696.5 614.25 662.25 648.5 662.25 631.375 391.5 631.375 391.5 511.5Z"
              stroke="#507E32" stroke-width="1.33333" stroke-miterlimit="8" fill="#70AD47"
              fill-rule="evenodd"/>
        <path d="M698.5 555.167C698.5 541.544 709.544 530.5 723.167 530.5L1112.83 530.5C1126.46 530.5 1137.5 541.544 1137.5 555.167L1137.5 653.833C1137.5 667.456 1126.46 678.5 1112.83 678.5L723.167 678.5C709.544 678.5 698.5 667.456 698.5 653.833Z"
              stroke="#2F528F" stroke-width="1.33333" stroke-miterlimit="8" fill="#C55A11"
              fill-rule="evenodd"/>
        <text fill="#FFFFFF" font-family="Calibri,Calibri_MSFontService,sans-serif"
              font-weight="400" font-size="24" transform="translate(714.912 568)">Stoomboot
            <tspan font-size="24" x="0" y="29">Storage</tspan>
            <tspan font-family="Courier New,Courier New_MSFontService,sans-serif" font-size="24"
                   x="0" y="57">/data/xenon/&lt;folder&gt;
            </tspan>
            <tspan font-family="Courier New,Courier New_MSFontService,sans-serif" font-size="24"
                   x="28.6667" y="86">/
            </tspan>
            <tspan font-family="Courier New,Courier New_MSFontService,sans-serif" font-size="24"
                   x="43" y="86">proces
            </tspan>
            <tspan font-family="Courier New,Courier New_MSFontService,sans-serif" font-size="24"
                   x="129" y="86">s
            </tspan>
            <tspan font-family="Courier New,Courier New_MSFontService,sans-serif" font-size="24"
                   x="143.333" y="86">ing_staged
            </tspan>
        </text>
        <path d="M241.5 443C241.5 400.198 313.582 365.5 402.5 365.5 491.418 365.5 563.5 400.198 563.5 443 563.5 485.802 491.418 520.5 402.5 520.5 313.582 520.5 241.5 485.802 241.5 443Z"
              stroke="#2F528F" stroke-width="1.33333" stroke-miterlimit="8" fill="#C55A11"
              fill-rule="evenodd"/>
        <text fill="#FFFFFF" font-family="Courier New,Courier New_MSFontService,sans-serif"
              font-weight="400" font-size="24" transform="translate(352.203 449)">amstrax
        </text>
        <g clip-path="url(#clip16)">
            <g clip-path="url(#clip17)">
                <g clip-path="url(#clip18)">
                    <path d="M92.625 21.9375C92.625 27.3223 77.3467 31.6875 58.5 31.6875 39.6533 31.6875 24.375 27.3223 24.375 21.9375 24.375 16.5527 39.6533 12.1875 58.5 12.1875 77.3467 12.1875 92.625 16.5527 92.625 21.9375Z"
                          transform="matrix(1 0 0 1.00855 1018 369)"/>
                    <path d="M82.875 46.3125C81.4125 46.3125 80.4375 45.3375 80.4375 43.875 80.4375 42.4125 81.4125 41.4375 82.875 41.4375 84.3375 41.4375 85.3125 42.4125 85.3125 43.875 85.3125 45.3375 84.3375 46.3125 82.875 46.3125ZM58.5 36.5625C39.7312 36.5625 24.375 32.175 24.375 26.8125L24.375 46.3125C24.375 51.675 39.7312 56.0625 58.5 56.0625 77.2688 56.0625 92.625 51.675 92.625 46.3125L92.625 26.8125C92.625 32.175 77.2688 36.5625 58.5 36.5625Z"
                          transform="matrix(1 0 0 1.00855 1018 369)"/>
                    <path d="M82.875 70.6875C81.4125 70.6875 80.4375 69.7125 80.4375 68.25 80.4375 66.7875 81.4125 65.8125 82.875 65.8125 84.3375 65.8125 85.3125 66.7875 85.3125 68.25 85.3125 69.7125 84.3375 70.6875 82.875 70.6875ZM58.5 60.9375C39.7312 60.9375 24.375 56.55 24.375 51.1875L24.375 70.6875C24.375 76.05 39.7312 80.4375 58.5 80.4375 77.2688 80.4375 92.625 76.05 92.625 70.6875L92.625 51.1875C92.625 56.55 77.2688 60.9375 58.5 60.9375Z"
                          transform="matrix(1 0 0 1.00855 1018 369)"/>
                    <path d="M82.875 95.0625C81.4125 95.0625 80.4375 94.0875 80.4375 92.625 80.4375 91.1625 81.4125 90.1875 82.875 90.1875 84.3375 90.1875 85.3125 91.1625 85.3125 92.625 85.3125 94.0875 84.3375 95.0625 82.875 95.0625ZM58.5 85.3125C39.7312 85.3125 24.375 80.925 24.375 75.5625L24.375 95.0625C24.375 100.425 39.7312 104.812 58.5 104.812 77.2688 104.812 92.625 100.425 92.625 95.0625L92.625 75.5625C92.625 80.925 77.2688 85.3125 58.5 85.3125Z"
                          transform="matrix(1 0 0 1.00855 1018 369)"/>
                </g>
            </g>
        </g>
        <g clip-path="url(#clip19)">
            <g clip-path="url(#clip20)">
                <g clip-path="url(#clip21)">
                    <path d="M92.625 21.9375C92.625 27.3223 77.3467 31.6875 58.5 31.6875 39.6533 31.6875 24.375 27.3223 24.375 21.9375 24.375 16.5527 39.6533 12.1875 58.5 12.1875 77.3467 12.1875 92.625 16.5527 92.625 21.9375Z"
                          transform="matrix(1 0 0 1.00855 1023 545)"/>
                    <path d="M82.875 46.3125C81.4125 46.3125 80.4375 45.3375 80.4375 43.875 80.4375 42.4125 81.4125 41.4375 82.875 41.4375 84.3375 41.4375 85.3125 42.4125 85.3125 43.875 85.3125 45.3375 84.3375 46.3125 82.875 46.3125ZM58.5 36.5625C39.7312 36.5625 24.375 32.175 24.375 26.8125L24.375 46.3125C24.375 51.675 39.7312 56.0625 58.5 56.0625 77.2688 56.0625 92.625 51.675 92.625 46.3125L92.625 26.8125C92.625 32.175 77.2688 36.5625 58.5 36.5625Z"
                          transform="matrix(1 0 0 1.00855 1023 545)"/>
                    <path d="M82.875 70.6875C81.4125 70.6875 80.4375 69.7125 80.4375 68.25 80.4375 66.7875 81.4125 65.8125 82.875 65.8125 84.3375 65.8125 85.3125 66.7875 85.3125 68.25 85.3125 69.7125 84.3375 70.6875 82.875 70.6875ZM58.5 60.9375C39.7312 60.9375 24.375 56.55 24.375 51.1875L24.375 70.6875C24.375 76.05 39.7312 80.4375 58.5 80.4375 77.2688 80.4375 92.625 76.05 92.625 70.6875L92.625 51.1875C92.625 56.55 77.2688 60.9375 58.5 60.9375Z"
                          transform="matrix(1 0 0 1.00855 1023 545)"/>
                    <path d="M82.875 95.0625C81.4125 95.0625 80.4375 94.0875 80.4375 92.625 80.4375 91.1625 81.4125 90.1875 82.875 90.1875 84.3375 90.1875 85.3125 91.1625 85.3125 92.625 85.3125 94.0875 84.3375 95.0625 82.875 95.0625ZM58.5 85.3125C39.7312 85.3125 24.375 80.925 24.375 75.5625L24.375 95.0625C24.375 100.425 39.7312 104.812 58.5 104.812 77.2688 104.812 92.625 100.425 92.625 95.0625L92.625 75.5625C92.625 80.925 77.2688 85.3125 58.5 85.3125Z"
                          transform="matrix(1 0 0 1.00855 1023 545)"/>
                </g>
            </g>
        </g>
        <text fill="#FF0000" font-family="Courier New,Courier New_MSFontService,sans-serif"
              font-weight="400" font-size="24" transform="translate(588.339 321)">ssh
            <tspan font-size="24" x="57.3334" y="0">tunnel</tspan>
            <tspan fill="#FFFFFF" font-family="Calibri,Calibri_MSFontService,sans-serif"
                   font-size="24" x="-146.739" y="300">processed data
            </tspan>
            <tspan fill="#000000" font-family="Calibri,Calibri_MSFontService,sans-serif"
                   font-weight="700" font-size="53" x="18.2462" y="-254">A
            </tspan>
            <tspan fill="#000000" font-family="Calibri,Calibri_MSFontService,sans-serif"
                   font-weight="700" font-size="53" x="267.757" y="-57">B
            </tspan>
            <tspan fill="#000000" font-family="Calibri,Calibri_MSFontService,sans-serif"
                   font-weight="700" font-size="53" x="-60.621" y="265">C
            </tspan>
        </text>
    </g>
</svg>